{
  "accessors": [
    {
      "bufferView": 2,
      "componentType": 5126,
      "count": 12,
      "max": [
        5.3018999099731445,
        -8.5831003189086914,
        16.109600067138672
      ],
      "min": [
        3.8893001079559326,
        -8.8780002593994141,
        15.152899742126465
      ],
      "type": "VEC3"
    },
    {
      "bufferView": 2,
      "byteOffset": 144,
      "componentType": 5126,
      "count": 12,
      "max": [
        0.26120483875274658,
        -0.70489555597305298,
        -0.079799681901931763
      ],
      "min": [
        -0.68029570579528809,
        -0.92700725793838501,
        -0.48080888390541077
      ],
      "type": "VEC3"
    },
    {
      "bufferView": 3,
      "componentType": 5126,
      "count": 12,
      "max": [
        -0.70580881834030151,
        0.59856969118118286,
        0.38447201251983643,
        -1
      ],
      "min": [
        -0.97849303483963013,
        -0.29590502381324768,
        -0.0038026829715818167,
        -1
      ],
      "type": "VEC4"
    },
    {
      "bufferView": 1,
      "componentType": 5126,
      "count": 12,
      "max": [
        0.88580000400543213,
        0.85039997100830078
      ],
      "min": [
        0.088600002229213715,
        0.18919999897480011
      ],
      "type": "VEC2"
    },
    {
      "bufferView": 0,
      "componentType": 5125,
      "count": 36,
      "max": [
        11
      ],
      "min": [
        0
      ],
      "type": "SCALAR"
    },
    {
      "bufferView": 2,
      "byteOffset": 288,
      "componentType": 5126,
      "count": 12,
      "max": [
        6.2343001365661621,
        -6.4279999732971191,
        16.617300033569336
      ],
      "min": [
        5.7348999977111816,
        -7.6426000595092773,
        15.431699752807617
      ],
      "type": "VEC3"
    },
    {
      "bufferView": 2,
      "byteOffset": 432,
      "componentType": 5126,
      "count": 12,
      "max": [
        0.98465508222579956,
        0.7869333028793335,
        0.27489453554153442
      ],
      "min": [
        0.59722524881362915,
        -0.023699939250946045,
        -0.28679925203323364
      ],
      "type": "VEC3"
    },
    {
      "bufferView": 3,
      "byteOffset": 192,
      "componentType": 5126,
      "count": 12,
      "max": [
        0.11130459606647491,
        0.9495474100112915,
        0.50769674777984619,
        1
      ],
      "min": [
        -0.78657299280166626,
        0.50391870737075806,
        0.29320827126502991,
        1
      ],
      "type": "VEC4"
    },
    {
      "bufferView": 1,
      "byteOffset": 96,
      "componentType": 5126,
      "count": 12,
      "max": [
        0.88580000400543213,
        0.85039997100830078
      ],
      "min": [
        0.088600002229213715,
        0.18919999897480011
      ],
      "type": "VEC2"
    },
    {
      "bufferView": 0,
      "byteOffset": 144,
      "componentType": 5125,
      "count": 36,
      "max": [
        11
      ],
      "min": [
        0
      ],
      "type": "SCALAR"
    },
    {
      "bufferView": 2,
      "byteOffset": 576,
      "componentType": 5126,
      "count": 48,
      "max": [
        -12.747099876403809,
        4.6307001113891602,
        10.889900207519531
      ],
      "min": [
        -18.627199172973633,
        -1.2494000196456909,
        5.1370000839233398
      ],
      "type": "VEC3"
    },
    {
      "bufferView": 2,
      "byteOffset": 1152,
      "componentType": 5126,
      "count": 48,
      "max": [
        0.99999856948852539,
        0.99634641408920288,
        0
      ],
      "min": [
        -0,
        -1,
        0
      ],
      "type": "VEC3"
    },
    {
      "bufferView": 3,
      "byteOffset": 384,
      "componentType": 5126,
      "count": 48,
      "max": [
        1,
        0.99999862909317017,
        0,
        1
      ],
      "min": [
        -0.99634641408920288,
        0,
        0,
        1
      ],
      "type": "VEC4"
    },
    {
      "bufferView": 1,
      "byteOffset": 192,
      "componentType": 5126,
      "count": 48,
      "max": [
        0.98259997367858887,
        1.0769000053405762
      ],
      "min": [
        0.049699999392032623,
        0.086999997496604919
      ],
      "type": "VEC2"
    },
    {
      "bufferView": 0,
      "byteOffset": 288,
      "componentType": 5125,
      "count": 72,
      "max": [
        47
      ],
      "min": [
        0
      ],
      "type": "SCALAR"
    },
    {
      "bufferView": 2,
      "byteOffset": 1728,
      "componentType": 5126,
      "count": 1603,
      "max": [
        7.8109002113342285,
        8.6955995559692383,
        19.359600067138672
      ],
      "min": [
        -10.160400390625,
        -9.7412996292114258,
        0.24500000476837158
      ],
      "type": "VEC3"
    },
    {
      "bufferView": 2,
      "byteOffset": 20964,
      "componentType": 5126,
      "count": 1603,
      "max": [
        0.99917340278625488,
        0.98374384641647339,
        0.99927544593811035
      ],
      "min": [
        -0.99622273445129395,
        -0.99916720390319824,
        -0.99156820774078369
      ],
      "type": "VEC3"
    },
    {
      "bufferView": 3,
      "byteOffset": 1152,
      "componentType": 5126,
      "count": 1603,
      "max": [
        0.99860280752182007,
        0.99949467182159424,
        0.99899238348007202,
        1
      ],
      "min": [
        -0.99972909688949585,
        -0.99991559982299805,
        -0.99999988079071045,
        -1
      ],
      "type": "VEC4"
    },
    {
      "bufferView": 1,
      "byteOffset": 576,
      "componentType": 5126,
      "count": 1603,
      "max": [
        0.99360001087188721,
        0.99479997158050537
      ],
      "min": [
        0.002899999963119626,
        0.0043999999761581421
      ],
      "type": "VEC2"
    },
    {
      "bufferView": 0,
      "byteOffset": 576,
      "componentType": 5125,
      "count": 5175,
      "max": [
        1602
      ],
      "min": [
        0
      ],
      "type": "SCALAR"
    },
    {
      "bufferView": 2,
      "byteOffset": 40200,
      "componentType": 5126,
      "count": 1762,
      "max": [
        15.41510009765625,
        11.453100204467773,
        22.008199691772461
      ],
      "min": [
        -16.846399307250977,
        -9.700200080871582,
        -1.4996000528335571
      ],
      "type": "VEC3"
    },
    {
      "bufferView": 2,
      "byteOffset": 61344,
      "componentType": 5126,
      "count": 1762,
      "max": [
        0.99757111072540283,
        0.99861466884613037,
        0.99933540821075439
      ],
      "min": [
        -0.99834120273590088,
        -0.9984554648399353,
        -0.99997365474700928
      ],
      "type": "VEC3"
    },
    {
      "bufferView": 3,
      "byteOffset": 26800,
      "componentType": 5126,
      "count": 1762,
      "max": [
        0.99999290704727173,
        0.99956834316253662,
        0.99843597412109375,
        1
      ],
      "min": [
        -0.9973597526550293,
        -0.9934391975402832,
        -0.989798903465271,
        -1
      ],
      "type": "VEC4"
    },
    {
      "bufferView": 1,
      "byteOffset": 13400,
      "componentType": 5126,
      "count": 1762,
      "max": [
        0.99919998645782471,
        0.99809998273849487
      ],
      "min": [
        0.013199999928474426,
        0.0030000000260770321
      ],
      "type": "VEC2"
    },
    {
      "bufferView": 0,
      "byteOffset": 21276,
      "componentType": 5125,
      "count": 8664,
      "max": [
        1761
      ],
      "min": [
        0
      ],
      "type": "SCALAR"
    }
  ],
  "asset": {
    "extras": {
      "author": "projectmgame (https://sketchfab.com/projectmgame)",
      "license": "CC-BY-4.0 (http://creativecommons.org/licenses/by/4.0/)",
      "source": "https://sketchfab.com/models/18c9b55cb05c45399edd51ca892352e0",
      "title": "Armored Charizard"
    },
    "generator": "Sketchfab-3.29.3",
    "version": "2.0"
  },
  "bufferViews": [
    {
      "buffer": 0,
      "byteLength": 55932,
      "byteOffset": 0,
      "name": "floatBufferViews",
      "target": 34963
    },
    {
      "buffer": 0,
      "byteLength": 27496,
      "byteOffset": 55932,
      "byteStride": 8,
      "name": "floatBufferViews",
      "target": 34962
    },
    {
      "buffer": 0,
      "byteLength": 82488,
      "byteOffset": 83428,
      "byteStride": 12,
      "name": "floatBufferViews",
      "target": 34962
    },
    {
      "buffer": 0,
      "byteLength": 54992,
      "byteOffset": 165916,
      "byteStride": 16,
      "name": "floatBufferViews",
      "target": 34962
    }
  ],
  "buffers": [
    {
      "byteLength": 220908,
      "uri": "scene.bin"
    }
  ],
  "images": [
    {
      "uri": "textures/BodyM1_baseColor.png"
    },
    {
      "uri": "textures/Armor_baseColor.png"
    },
    {
      "uri": "textures/Material__29_baseColor.png"
    },
    {
      "uri": "textures/Material__30_baseColor.png"
    },
    {
      "uri": "textures/Material__31_baseColor.png"
    },
    {
      "uri": "textures/Material__31_emissive.png"
    }
  ],
  "materials": [
    {
      "doubleSided": true,
      "emissiveFactor": [
        0,
        0,
        0
      ],
      "name": "Armor",
      "pbrMetallicRoughness": {
        "baseColorFactor": [
          1,
          1,
          1,
          1
        ],
        "baseColorTexture": {
          "index": 1,
          "texCoord": 0
        },
        "metallicFactor": 0,
        "roughnessFactor": 0.59999999999999998
      }
    },
    {
      "doubleSided": true,
      "emissiveFactor": [
        0,
        0,
        0
      ],
      "name": "BodyM1",
      "pbrMetallicRoughness": {
        "baseColorFactor": [
          1,
          1,
          1,
          1
        ],
        "baseColorTexture": {
          "index": 0,
          "texCoord": 0
        },
        "metallicFactor": 0,
        "roughnessFactor": 0.59999999999999998
      }
    },
    {
      "doubleSided": true,
      "emissiveFactor": [
        0,
        0,
        0
      ],
      "name": "Material__29",
      "pbrMetallicRoughness": {
        "baseColorFactor": [
          1,
          1,
          1,
          1
        ],
        "baseColorTexture": {
          "index": 2,
          "texCoord": 0
        },
        "metallicFactor": 0,
        "roughnessFactor": 0.59999999999999998
      }
    },
    {
      "doubleSided": true,
      "emissiveFactor": [
        0,
        0,
        0
      ],
      "name": "Material__30",
      "pbrMetallicRoughness": {
        "baseColorFactor": [
          1,
          1,
          1,
          1
        ],
        "baseColorTexture": {
          "index": 3,
          "texCoord": 0
        },
        "metallicFactor": 0,
        "roughnessFactor": 0.59999999999999998
      }
    },
    {
      "alphaMode": "BLEND",
      "doubleSided": true,
      "emissiveFactor": [
        1,
        1,
        1
      ],
      "emissiveTexture": {
        "index": 5,
        "texCoord": 0
      },
      "name": "Material__31",
      "pbrMetallicRoughness": {
        "baseColorFactor": [
          1,
          1,
          1,
          0.13
        ],
        "baseColorTexture": {
          "index": 4,
          "texCoord": 0
        },
        "metallicFactor": 0,
        "roughnessFactor": 0.59999999999999998
      }
    }
  ],
  "meshes": [
    {
      "primitives": [
        {
          "attributes": {
            "NORMAL": 1,
            "POSITION": 0,
            "TANGENT": 2,
            "TEXCOORD_0": 3
          },
          "indices": 4,
          "material": 2,
          "mode": 4
        }
      ]
    },
    {
      "primitives": [
        {
          "attributes": {
            "NORMAL": 6,
            "POSITION": 5,
            "TANGENT": 7,
            "TEXCOORD_0": 8
          },
          "indices": 9,
          "material": 3,
          "mode": 4
        }
      ]
    },
    {
      "primitives": [
        {
          "attributes": {
            "NORMAL": 11,
            "POSITION": 10,
            "TANGENT": 12,
            "TEXCOORD_0": 13
          },
          "indices": 14,
          "material": 4,
          "mode": 4
        }
      ]
    },
    {
      "primitives": [
        {
          "attributes": {
            "NORMAL": 16,
            "POSITION": 15,
            "TANGENT": 17,
            "TEXCOORD_0": 18
          },
          "indices": 19,
          "material": 0,
          "mode": 4
        }
      ]
    },
    {
      "primitives": [
        {
          "attributes": {
            "NORMAL": 21,
            "POSITION": 20,
            "TANGENT": 22,
            "TEXCOORD_0": 23
          },
          "indices": 24,
          "material": 1,
          "mode": 4
        }
      ]
    }
  ],
  "nodes": [
    {
      "children": [
        1
      ],
      "name": "RootNode (gltf orientation matrix)",
      "rotation": [
        -0.70710678118654746,
        -0,
        -0,
        0.70710678118654757
      ]
    },
    {
      "children": [
        2
      ],
      "name": "RootNode (model correction matrix)"
    },
    {
      "children": [
        3,
        4,
        5,
        6,
        7
      ],
      "name": "pose.obj.cleaner"
    },
    {
      "mesh": 0,
      "name": ""
    },
    {
      "mesh": 1,
      "name": ""
    },
    {
      "mesh": 2,
      "name": ""
    },
    {
      "mesh": 3,
      "name": ""
    },
    {
      "mesh": 4,
      "name": ""
    }
  ],
  "samplers": [
    {
      "magFilter": 9729,
      "minFilter": 9987,
      "wrapS": 10497,
      "wrapT": 10497
    }
  ],
  "scene": 0,
  "scenes": [
    {
      "name": "OSG_Scene",
      "nodes": [
        0
      ]
    }
  ],
  "textures": [
    {
      "sampler": 0,
      "source": 0
    },
    {
      "sampler": 0,
      "source": 1
    },
    {
      "sampler": 0,
      "source": 2
    },
    {
      "sampler": 0,
      "source": 3
    },
    {
      "sampler": 0,
      "source": 4
    },
    {
      "sampler": 0,
      "source": 5
    }
  ]
}

